<svg xmlns="http://www.w3.org/2000/svg" xmlns:xlink="http://www.w3.org/1999/xlink" width="18" height="24" viewBox="0 0 18 24"><defs><path id="urw5a" d="M1244.84 3809.6l6.11-6.32a2.82 2.82 0 0 1 4.08 0l6.11 6.32a3.04 3.04 0 0 1 0 4.2l-6.11 6.32a2.82 2.82 0 0 1-4.08 0l-6.11-6.32a3.04 3.04 0 0 1 0-4.2z"/><path id="urw5b" d="M1244.84 3804.18l6.11-6.32a2.82 2.82 0 0 1 4.08 0l6.11 6.32a3.04 3.04 0 0 1 0 4.2l-6.11 6.32a2.82 2.82 0 0 1-4.08 0l-6.11-6.31a3.04 3.04 0 0 1 0-4.21z"/></defs><g><g opacity=".4" transform="translate(-1244 -3797)"><use fill="#fbdf5b" xlink:href="#urw5a"/></g><g transform="translate(-1244 -3797)"><use fill="#fbdf5b" xlink:href="#urw5b"/></g></g></svg>